<?xml version="1.0" encoding="UTF-8" standalone="no"?>
<!-- Generator: Adobe Illustrator 27.5.0, SVG Export Plug-In . SVG Version: 6.00 Build 0)  -->

<svg
   version="1.1"
   x="0px"
   y="0px"
   viewBox="0 0 500 500"
   style="enable-background:new 0 0 500 500;"
   xml:space="preserve"
   id="svg179"
   sodipodi:docname="gaza_relief.svg"
   inkscape:version="1.4 (86a8ad7, 2024-10-11)"
   xmlns:inkscape="http://www.inkscape.org/namespaces/inkscape"
   xmlns:sodipodi="http://sodipodi.sourceforge.net/DTD/sodipodi-0.dtd"
   xmlns="http://www.w3.org/2000/svg"
   xmlns:svg="http://www.w3.org/2000/svg"><defs
   id="defs179" /><sodipodi:namedview
   id="namedview179"
   pagecolor="#ffffff"
   bordercolor="#000000"
   borderopacity="0.25"
   inkscape:showpageshadow="2"
   inkscape:pageopacity="0.0"
   inkscape:pagecheckerboard="0"
   inkscape:deskcolor="#d1d1d1"
   inkscape:zoom="1.51"
   inkscape:cx="249.66887"
   inkscape:cy="250"
   inkscape:window-width="1920"
   inkscape:window-height="994"
   inkscape:window-x="-9"
   inkscape:window-y="-9"
   inkscape:window-maximized="1"
   inkscape:current-layer="svg179" />
<g
   id="BACKGROUND">
	<rect
   style="fill:#dd4b39;fill-opacity:1"
   width="500"
   height="500"
   id="rect1" />
</g>
<g
   id="OBJECTS">
	<path
   style="fill:#e67e6d;fill-opacity:1"
   d="M47.809,171.063c1.118-26.311,8.603-51.754,25.239-75.171   c62.565-88.067,219.385-85.836,306.16-36.252c26.056,14.888,48.47,37.717,57.448,65.951c7.252,22.805,5.38,47.227,5.25,71.081   c-0.147,26.895,5.609,46.843,16.648,70.979c8.836,19.318,10.693,42.28,7.117,62.928c-7.759,44.801-41.14,81.058-81.195,101.62   c-63.663,32.68-164.676,33.081-242.341,14.255c-39.252-9.515-76.739-28.773-95.801-55.865   c-15.167-21.556-17.516-46.21-12.673-68.914c3.894-18.255,13.101-34.567,20.798-51.78c6.17-13.798,3.56-25.793-0.132-40.793   C49.524,209.594,47,190.102,47.809,171.063z"
   id="path1" />
	<g
   id="g39">
		<g
   id="g20">
			<g
   id="g8">
				<path
   style="fill:#6FB590;"
   d="M137.707,409.608c0,0-15.529-86.824-105.704-139.803      C50.658,362.804,49.381,389.044,137.707,409.608z"
   id="path2" />
				<path
   style="fill:none;stroke:#4B7F63;stroke-width:1.2141;stroke-miterlimit:10;"
   d="M32.003,269.805      c0,0,29.811,38.372,48.203,74.3c18.392,35.928,49.358,59.176,57.502,65.503"
   id="path3" />
				<path
   style="fill:none;stroke:#4B7F63;stroke-width:1.2141;stroke-miterlimit:10;"
   d="M65.339,293.453      c0,0,0.015,15.789-1.776,21.725"
   id="path4" />
				<path
   style="fill:none;stroke:#4B7F63;stroke-width:1.2141;stroke-miterlimit:10;"
   d="M91.277,319.369      c0,0-0.396,14.464-6.184,33.529"
   id="path5" />
				<path
   style="fill:none;stroke:#4B7F63;stroke-width:1.2141;stroke-miterlimit:10;"
   d="M112.567,348.872      c0,0,1.08,21.436-4.098,34.613"
   id="path6" />
				<path
   style="fill:none;stroke:#4B7F63;stroke-width:1.2141;stroke-miterlimit:10;"
   d="M96.136,369.036      c0,0-18.617,1.337-41.913-10.372"
   id="path7" />
				<path
   style="fill:none;stroke:#4B7F63;stroke-width:1.2141;stroke-miterlimit:10;"
   d="M75.604,335.478      c0,0-18.649-6.892-33.838-17.012"
   id="path8" />
			</g>
			<g
   id="g19">
				<path
   style="fill:#95D1B0;"
   d="M78.231,241.257c0.207,2.539-1.682,4.765-4.221,4.972c-2.539,0.208-4.765-1.682-4.972-4.221      c-0.207-2.539,1.682-4.765,4.221-4.972C75.797,236.828,78.023,238.718,78.231,241.257z"
   id="path9" />
				<path
   style="fill:#95D1B0;"
   d="M74.925,277.591c0.207,2.538-1.682,4.764-4.221,4.972c-2.538,0.208-4.764-1.682-4.972-4.221      c-0.207-2.539,1.682-4.764,4.221-4.972C72.491,273.163,74.717,275.053,74.925,277.591z"
   id="path10" />
				<g
   id="g18">
					<path
   style="fill:#6FB590;"
   d="M65.442,252.074c0,0-3.595-27.417-21.282-31.172C46.231,246.231,65.442,252.074,65.442,252.074z       "
   id="path11" />
					<path
   style="fill:#6FB590;"
   d="M73.232,262.595c0,0-20.277-10.894-31.41-0.765C59.946,272.74,73.232,262.595,73.232,262.595z"
   id="path12" />
					<path
   style="fill:#6FB590;"
   d="M86.092,241.446c0,0-2.515,22.88,11.044,29.414C100.471,249.969,86.092,241.446,86.092,241.446z       "
   id="path13" />
					<path
   style="fill:none;stroke:#2C5B41;stroke-width:1.3334;stroke-linecap:round;stroke-miterlimit:10;"
   d="M119.383,292.488       c0,0-47.623-20.426-66.292-59.623"
   id="path14" />
					<path
   style="fill:none;stroke:#2C5B41;stroke-width:1.3334;stroke-linecap:round;stroke-miterlimit:10;"
   d="M73.66,243.042       c0,0,4.076,20.86,11.762,28.488"
   id="path15" />
					<path
   style="fill:none;stroke:#2C5B41;stroke-width:1.3334;stroke-linecap:round;stroke-miterlimit:10;"
   d="M76.691,264.017       c0,0-15.469-3.757-24.713-1.528"
   id="path16" />
					<path
   style="fill:none;stroke:#2C5B41;stroke-width:1.3334;stroke-linecap:round;stroke-miterlimit:10;"
   d="M108.869,287.171       c0,0-12.221-11.551-17.042-30.889"
   id="path17" />
					<path
   style="fill:none;stroke:#2C5B41;stroke-width:1.3334;stroke-linecap:round;stroke-miterlimit:10;"
   d="M98.429,280.883       c0,0-17.964-5.04-28.113-3.068"
   id="path18" />
				</g>
			</g>
		</g>
		<g
   id="g38">
			<g
   id="g26">
				<path
   style="fill:#4B7F63;"
   d="M370.17,401.552c0,0,19.349-77.968,104.493-120.677      C452.102,364.267,451.68,388.19,370.17,401.552z"
   id="path20" />
				<path
   style="fill:none;stroke:#6FB590;stroke-width:1.1058;stroke-miterlimit:10;"
   d="M474.663,280.875      c0,0-29.406,33.074-48.286,64.616c-18.881,31.542-48.424,50.802-56.207,56.061"
   id="path21" />
				<path
   style="fill:none;stroke:#6FB590;stroke-width:1.1058;stroke-miterlimit:10;"
   d="M442.942,300.356      c0,0-0.966,14.348,0.304,19.851"
   id="path22" />
				<path
   style="fill:none;stroke:#6FB590;stroke-width:1.1058;stroke-miterlimit:10;"
   d="M417.807,322.344      c0,0-0.512,13.168,3.598,30.844"
   id="path23" />
				<path
   style="fill:none;stroke:#6FB590;stroke-width:1.1058;stroke-miterlimit:10;"
   d="M396.68,347.872      c0,0-2.274,19.415,1.637,31.702"
   id="path24" />
				<path
   style="fill:none;stroke:#6FB590;stroke-width:1.1058;stroke-miterlimit:10;"
   d="M410.397,367.188      c0,0,16.838,2.338,38.715-6.899"
   id="path25" />
				<path
   style="fill:none;stroke:#6FB590;stroke-width:1.1058;stroke-miterlimit:10;"
   d="M431.079,337.929      c0,0,17.363-5.139,31.778-13.419"
   id="path26" />
			</g>
			<g
   id="g37">
				<path
   style="fill:#95D1B0;"
   d="M424.629,259.406c-0.062,2.546,1.952,4.66,4.499,4.722c2.546,0.062,4.66-1.952,4.722-4.499      c0.062-2.546-1.952-4.66-4.499-4.722C426.805,254.846,424.691,256.86,424.629,259.406z"
   id="path27" />
				<path
   style="fill:#95D1B0;"
   d="M430.012,295.492c-0.062,2.546,1.952,4.66,4.498,4.722c2.546,0.062,4.661-1.952,4.722-4.498      c0.062-2.546-1.952-4.66-4.499-4.722C432.188,290.932,430.074,292.946,430.012,295.492z"
   id="path28" />
				<g
   id="g36">
					<path
   style="fill:#6FB590;"
   d="M438.017,269.473c0,0,2.019-27.578,19.461-32.34       C456.862,262.539,438.017,269.473,438.017,269.473z"
   id="path29" />
					<path
   style="fill:#6FB590;"
   d="M430.843,280.424c0,0,19.62-12.038,31.314-2.564       C444.688,289.79,430.843,280.424,430.843,280.424z"
   id="path30" />
					<path
   style="fill:#6FB590;"
   d="M416.792,260.046c0,0,3.822,22.699-9.341,29.999       C402.925,269.379,416.792,260.046,416.792,260.046z"
   id="path31" />
					<path
   style="fill:none;stroke:#2C5B41;stroke-width:1.3334;stroke-linecap:round;stroke-miterlimit:10;"
   d="M386.48,312.911       c0,0,46.374-23.121,62.767-63.323"
   id="path32" />
					<path
   style="fill:none;stroke:#2C5B41;stroke-width:1.3334;stroke-linecap:round;stroke-miterlimit:10;"
   d="M429.295,260.927       c0,0-2.875,21.059-10.111,29.115"
   id="path33" />
					<path
   style="fill:none;stroke:#2C5B41;stroke-width:1.3334;stroke-linecap:round;stroke-miterlimit:10;"
   d="M427.471,282.041       c0,0,15.228-4.637,24.585-2.941"
   id="path34" />
					<path
   style="fill:none;stroke:#2C5B41;stroke-width:1.3334;stroke-linecap:round;stroke-miterlimit:10;"
   d="M396.672,307.001       c0,0,11.539-12.232,15.244-31.815"
   id="path35" />
					<path
   style="fill:none;stroke:#2C5B41;stroke-width:1.3334;stroke-linecap:round;stroke-miterlimit:10;"
   d="M406.735,300.125       c0,0,17.645-6.061,27.891-4.673"
   id="path36" />
				</g>
			</g>
		</g>
	</g>
	<g
   id="g85">
		<g
   id="g58">
			<g
   id="g42">
				<path
   style="fill:#936212;"
   d="M145.024,185.99c0,0-1.603-3.536,0.92-5.978c0.422-0.408,0.51-1.051,0.187-1.541l-0.1-0.152      c0,0-3.548,2.368-1.631,7.643C144.952,187.54,145.024,185.99,145.024,185.99z"
   id="path39" />
				<path
   style="fill:#8B3C00;"
   d="M144.619,184.572c0.146,0.844,0.405,1.418,0.405,1.418s-0.073,1.55-0.625-0.029      c-0.171-0.47-0.297-0.916-0.387-1.341C144.224,184.599,144.428,184.583,144.619,184.572z"
   id="path40" />
				<path
   style="fill:#6FB590;"
   d="M133.988,202.956c0.832-4.116,4.673-4.979,4.947-10.829c0.19-4.063,3.057-5.492,4.79-5.986      c0.85-0.242,1.756-0.2,2.58,0.121c1.679,0.654,4.399,2.346,4.208,6.408c-0.274,5.849,3.469,7.068,3.912,11.244      c0.648,6.114-1.54,10.657-10.721,10.226C134.523,213.71,132.77,208.982,133.988,202.956z"
   id="path41" />
				<path
   style="opacity:0.35;fill:#FFFFFF;"
   d="M133.988,202.956c0.832-4.116,4.673-4.979,4.947-10.829      c0.191-4.063,3.057-5.492,4.79-5.986c0.85-0.242,1.756-0.2,2.58,0.121c0.447,0.174,0.967,0.423,1.487,0.769      c-0.362,0.003-0.724,0.052-1.077,0.152c-1.733,0.494-4.599,1.923-4.79,5.986c-0.275,5.849-4.115,6.712-4.947,10.829      c-0.855,4.23-0.241,7.817,3.372,9.731C134.104,212.391,132.936,208.158,133.988,202.956z"
   id="path42" />
			</g>
			<g
   id="g51">
				<g
   id="g45">
					<path
   style="fill:#6FB590;"
   d="M166.77,195.581c0,0,5.594-2.667,9.787,2.139C170.828,198.867,166.77,195.581,166.77,195.581z"
   id="path43" />
					<path
   style="fill:#6FB590;"
   d="M166.77,195.581c5.337-0.164,9.787,2.139,9.787,2.139       C172.364,192.914,166.77,195.581,166.77,195.581z"
   id="path44" />
					<path
   style="fill:none;stroke:#2F681F;stroke-width:0.1836;stroke-miterlimit:10;"
   d="M176.557,197.719       c0,0-5.743-2.686-9.561-2.143"
   id="path45" />
				</g>
				<path
   style="fill:#8B3C00;"
   d="M166.035,197.75c0,0,0.434-1.835,2.119-3.772c0.241-0.277,0.238-0.691-0.01-0.961l-0.01-0.011      c-0.305-0.333-0.837-0.307-1.108,0.054C166.336,193.981,165.332,195.772,166.035,197.75z"
   id="path46" />
				<path
   style="fill:#DB5E1F;"
   d="M170.645,198.791c-3.009-0.966-4.761-1.811-4.761-1.811s-1.567-1.153-3.829-3.36      c-2.262-2.207-7.551-2.646-11.768,6.114c-1.898,3.942-1.102,7.389,0.347,9.987c2.247,4.03,6.514,6.599,11.128,6.699      c2.975,0.064,6.393-0.846,8.988-4.368C176.517,204.225,173.654,199.757,170.645,198.791z"
   id="path47" />
				<path
   style="fill:#A52E00;"
   d="M165.884,196.979c0,0-0.34-0.251-0.926-0.736c-2.768,2.34-6.515,7.849-7.801,10.97      c3.405-5.779,7.454-8.84,9.246-10C166.063,197.066,165.884,196.979,165.884,196.979z"
   id="path48" />
				<path
   style="fill:#E07700;"
   d="M151.934,202.696c1.899-7.878,10.121-9.077,10.121-9.077c-2.262-2.207-7.551-2.646-11.768,6.114      c-1.898,3.942-1.102,7.389,0.347,9.987c2.247,4.03,6.514,6.599,11.128,6.699c0.199,0.004,0.399,0.003,0.601-0.001      C158.36,215.668,150.035,210.574,151.934,202.696z"
   id="path49" />
				<path
   style="fill:#A52E00;"
   d="M170.749,212.052c5.768-7.827,2.905-12.295-0.104-13.262c-0.686-0.22-1.304-0.434-1.853-0.633      c1.765,2.68,4.862,9.727-3.919,17.928C166.947,215.57,169.029,214.387,170.749,212.052z"
   id="path50" />
				<path
   style="fill:#CC5404;"
   d="M168.134,193.006l0.01,0.011c0.042,0.046,0.074,0.096,0.102,0.149      c-0.508,0.756-1.302,1.673-2.203,1.74c0.253-0.764,0.653-1.406,0.983-1.846C167.297,192.698,167.828,192.673,168.134,193.006z"
   id="path51" />
			</g>
			<g
   id="g57">
				<g
   id="g56">
					<path
   style="fill:#EEB700;"
   d="M102.642,205.361c0,0,26.829-5.839,39.554,28.484c0.705,1.901,3.316,2.081,4.264,0.289       c4.553-8.617,4.853-20.784-10.989-32.774c-18.644-14.111-29.264-2.599-30.792-0.895c-1.528,1.704-3.167,2.609-4.838,2.298       c-1.671-0.311-4.945,0.549-5.977,1.913c-1.033,1.364-0.316,2.622,1.278,3.351C96.734,208.757,100.921,207.635,102.642,205.361z       "
   id="path52" />
					<path
   style="fill:#F5DF3C;"
   d="M142.196,233.845c0.519,1.399,2.068,1.862,3.228,1.298c-0.496-7.089-3.482-20.488-18.189-28.572       c-20.709-11.382-24.593-1.21-24.593-1.21S129.471,199.522,142.196,233.845z"
   id="path53" />
					<path
   style="fill:#D59B00;"
   d="M106.989,198.299c3.731-0.609,10.353-1.145,16.932,0.996       c19.005,7.301,23.604,21.724,24.697,29.115c1.833-7.881-0.557-17.52-13.148-27.049       C120.92,190.348,111.258,194.941,106.989,198.299z"
   id="path54" />
					<path
   style="fill:#6D3E3B;"
   d="M142.278,234.025c0.801,1.726,3.266,1.842,4.182,0.109c0.159-0.301,0.312-0.608,0.46-0.918       C145.131,233.119,143.517,233.533,142.278,234.025z"
   id="path55" />
					<path
   style="fill:#6D3E3B;"
   d="M94.482,209.193c0.748,0.342,2.727-0.893,4.095-1.295c0.617-1.324,1.042-3.06,0.776-5.188       c-1.755-0.098-4.785-0.05-5.725,1.192C92.595,205.267,92.888,208.464,94.482,209.193z"
   id="path56" />
				</g>
				<path
   style="opacity:0.35;fill:#FFFFFF;"
   d="M145.514,235.1c-0.029,0.016-0.059,0.029-0.089,0.043l0,0c0,0-0.001,0-0.001,0.001      c-0.02,0.01-0.041,0.018-0.062,0.027c-0.046,0.021-0.091,0.043-0.138,0.061c-0.059,0.022-0.119,0.038-0.18,0.055      c-0.041,0.012-0.081,0.025-0.121,0.034c-0.051,0.011-0.102,0.019-0.154,0.027c-0.021,0.003-0.042,0.006-0.064,0.009      c-0.03,0.004-0.059,0.009-0.089,0.012c-0.078,0.007-0.157,0.008-0.235,0.008c-0.024,0-0.048,0.001-0.073,0      c-0.067-0.003-0.134-0.01-0.201-0.018c-0.038-0.005-0.076-0.009-0.113-0.015c-0.051-0.009-0.101-0.019-0.151-0.031      c-0.042-0.01-0.084-0.022-0.126-0.035c-0.004-0.001-0.007-0.002-0.011-0.003c-0.001,0-0.002-0.001-0.002-0.001      c-0.042-0.013-0.085-0.024-0.127-0.04c-0.082-0.03-0.163-0.065-0.241-0.104c-0.032-0.016-0.062-0.034-0.093-0.051      c-0.056-0.031-0.111-0.065-0.165-0.101c-0.03-0.02-0.059-0.04-0.088-0.062c-0.063-0.047-0.123-0.097-0.182-0.151      c-0.015-0.014-0.03-0.025-0.045-0.04c-0.071-0.069-0.137-0.144-0.2-0.224c-0.018-0.023-0.035-0.047-0.052-0.071      c-0.046-0.063-0.089-0.13-0.13-0.199c-0.016-0.027-0.032-0.054-0.047-0.083c-0.051-0.095-0.098-0.194-0.137-0.3      c0-0.001-0.001-0.001-0.001-0.002c-3.809-10.274-8.882-16.941-14.12-21.251c5.277-1.028,12.045-1.493,18.27,0.644      c0.018,0.033,0.037,0.066,0.055,0.099c0.071,0.131,0.145,0.262,0.213,0.392c0.161,0.309,0.315,0.618,0.459,0.925      c0.066,0.14,0.125,0.279,0.187,0.419c0.083,0.185,0.166,0.371,0.243,0.556c0.067,0.161,0.13,0.321,0.193,0.482      c0.063,0.162,0.125,0.323,0.183,0.485c0.061,0.167,0.121,0.333,0.177,0.499c0.052,0.153,0.099,0.305,0.147,0.457      c0.203,0.646,0.372,1.287,0.508,1.923c0.025,0.117,0.051,0.235,0.074,0.352c0.038,0.194,0.072,0.387,0.104,0.581      c0.018,0.109,0.035,0.217,0.051,0.325c0.03,0.201,0.059,0.402,0.083,0.602c0.009,0.076,0.016,0.152,0.024,0.229      c0.078,0.722,0.116,1.435,0.116,2.138c0,0.049,0.001,0.098,0,0.147c-0.001,0.228-0.007,0.454-0.016,0.68      c-0.002,0.05-0.004,0.1-0.007,0.15c-0.165,3.445-1.192,6.642-2.68,9.458c-0.001,0.002-0.002,0.004-0.004,0.005      c-0.057,0.108-0.121,0.209-0.19,0.303c-0.023,0.032-0.05,0.058-0.074,0.088c-0.049,0.061-0.098,0.122-0.151,0.176      c-0.033,0.033-0.069,0.06-0.103,0.09c-0.05,0.044-0.098,0.09-0.15,0.129c-0.041,0.031-0.085,0.055-0.127,0.083      C145.612,235.039,145.564,235.072,145.514,235.1z"
   id="path57" />
			</g>
		</g>
		<g
   id="g69">
			<g
   id="g59">
				<circle
   style="fill:#DB5E1F;"
   cx="355.539"
   cy="255.397"
   r="13.127"
   id="circle58" />
				<path
   style="opacity:0.35;fill:#F5F7E9;"
   d="M362.1,244.038c-0.866,6.411-6.346,11.358-12.995,11.358      c-2.393,0-4.629-0.65-6.561-1.769c0.866-6.411,6.346-11.359,12.995-11.359C357.932,242.269,360.168,242.92,362.1,244.038z"
   id="path58" />
			</g>
			<g
   id="g60">
				<path
   style="fill:#DB5E1F;"
   d="M321.768,234.298l-13.3,0.756c-3.493,0.199-6.163,3.191-5.965,6.683l1.659,29.192      c0.198,3.493,3.191,6.163,6.684,5.965l13.3-0.756c3.493-0.199,6.163-3.191,5.965-6.684l-1.659-29.192      C328.253,236.77,325.261,234.1,321.768,234.298z"
   id="path59" />
				
					<rect
   x="312.227"
   y="246.654"
   transform="matrix(0.9984 -0.0567 0.0567 0.9984 -13.9863 18.6142)"
   style="fill:#FFF6E7;"
   width="17.081"
   height="17.851"
   id="rect59" />
			</g>
			<g
   id="g61">
				<path
   style="fill:#DB5E1F;"
   d="M317.889,261.062c0,7.25,5.877,13.128,13.127,13.128c7.25,0,13.128-5.878,13.128-13.128      c0-7.25-5.877-13.127-13.128-13.127C323.766,247.935,317.889,253.812,317.889,261.062z"
   id="path60" />
				<path
   style="opacity:0.35;fill:#F5F7E9;"
   d="M337.578,249.704c-0.866,6.411-6.346,11.358-12.995,11.358      c-2.393,0-4.629-0.651-6.561-1.769c0.866-6.411,6.346-11.358,12.995-11.358C333.409,247.935,335.646,248.585,337.578,249.704z"
   id="path61" />
			</g>
			<g
   id="g62">
				<path
   style="fill:#EFE9E6;"
   d="M363.518,268.449l10.486,10.267c2.754,2.696,7.172,2.65,9.868-0.104l22.536-23.016      c2.696-2.754,2.65-7.172-0.104-9.868l-10.486-10.267c-2.754-2.696-7.172-2.65-9.868,0.104l-22.536,23.016      C360.718,261.334,360.765,265.752,363.518,268.449z"
   id="path62" />
				
					<rect
   x="371.755"
   y="244.06"
   transform="matrix(0.6996 -0.7145 0.7145 0.6996 -66.486 348.7888)"
   style="fill:#2ABADB;"
   width="19.665"
   height="18.818"
   id="rect62" />
			</g>
			<path
   style="opacity:0.56;fill:#462E16;"
   d="M405.058,256.976l-21.186,21.637c-2.696,2.754-7.115,2.8-9.868,0.104l-10.486-10.267     c-2.754-2.696-2.8-7.115-0.104-9.868l1.571-1.605H405.058L405.058,256.976z"
   id="path63" />
			<g
   id="g65">
				<rect
   x="295.604"
   y="261.817"
   style="fill:#D89261;"
   width="111.342"
   height="87.242"
   id="rect63" />
				<rect
   x="295.604"
   y="261.817"
   style="fill:#AD6D42;"
   width="33.772"
   height="87.242"
   id="rect64" />
				<polygon
   style="fill:#AD6D42;"
   points="284.657,279.502 318.429,279.502 329.376,261.817 295.604,261.817     "
   id="polygon64" />
				<polygon
   style="fill:#D89261;"
   points="340.057,279.502 417.627,279.502 406.946,261.817 329.376,261.817     "
   id="polygon65" />
			</g>
			<polygon
   style="fill:#462E16;"
   points="406.946,287.085 337.578,287.085 329.376,261.817 340.057,279.502 406.946,279.502    "
   id="polygon66" />
			<polygon
   style="fill:#462E16;"
   points="329.376,261.817 322.596,287.085 295.604,287.085 295.604,279.502 318.429,279.502    "
   id="polygon67" />
			<circle
   style="fill:#FFFFFF;"
   cx="366.958"
   cy="315.255"
   r="16.481"
   id="circle67" />
			<g
   id="g68">
				<rect
   x="363.128"
   y="304.088"
   style="fill:#DB5E1F;"
   width="7.66"
   height="22.334"
   id="rect67" />
				<rect
   x="355.791"
   y="311.425"
   style="fill:#DB5E1F;"
   width="22.334"
   height="7.66"
   id="rect68" />
			</g>
		</g>
		<g
   id="g71">
			<polygon
   style="fill:#844F2A;"
   points="108.934,219.697 102.435,205.789 145.908,205.789 139.912,231.93    "
   id="polygon69" />
			
				<rect
   x="108.934"
   y="219.697"
   transform="matrix(-1 -1.224647e-16 1.224647e-16 -1 326.1342 509.7777)"
   style="fill:#AD6D42;"
   width="108.266"
   height="70.383"
   id="rect69" />
			
				<rect
   x="132.116"
   y="219.697"
   transform="matrix(-1 -1.224647e-16 1.224647e-16 -1 372.4974 509.7777)"
   style="fill:#D89261;"
   width="108.266"
   height="70.383"
   id="rect70" />
			<polygon
   style="fill:#AD6D42;"
   points="132.116,219.697 136.511,205.789 246.118,205.789 240.382,219.697    "
   id="polygon70" />
			
				<rect
   x="151.089"
   y="248.088"
   transform="matrix(-1.836970e-16 1 -1 -1.836970e-16 441.1052 68.6079)"
   style="fill:#FFF6E7;"
   width="70.319"
   height="13.538"
   id="rect71" />
			<polygon
   style="fill:#D8C5BA;"
   points="198.882,205.789 184.974,205.789 179.48,219.697 193.388,219.697    "
   id="polygon71" />
		</g>
		<g
   id="g74">
			<polygon
   style="fill:#844F2A;"
   points="291.927,351.464 285.428,337.556 328.901,337.556 322.905,363.697    "
   id="polygon72" />
			
				<rect
   x="291.927"
   y="351.464"
   transform="matrix(-1 -1.224647e-16 1.224647e-16 -1 692.1202 773.3113)"
   style="fill:#AD6D42;"
   width="108.266"
   height="70.383"
   id="rect72" />
			
				<rect
   x="315.109"
   y="351.464"
   transform="matrix(-1 -1.224647e-16 1.224647e-16 -1 738.4833 773.3113)"
   style="fill:#D89261;"
   width="108.266"
   height="70.383"
   id="rect73" />
			<polygon
   style="fill:#AD6D42;"
   points="315.109,351.464 319.504,337.556 429.111,337.556 423.375,351.464    "
   id="polygon73" />
			
				<rect
   x="334.082"
   y="379.854"
   transform="matrix(-1.836970e-16 1 -1 -1.836970e-16 755.8651 17.3817)"
   style="fill:#FFF6E7;"
   width="70.319"
   height="13.538"
   id="rect74" />
			<polygon
   style="fill:#D8C5BA;"
   points="381.875,337.556 367.967,337.556 362.473,351.464 376.381,351.464    "
   id="polygon74" />
		</g>
		<g
   id="g84">
			<rect
   x="119.137"
   y="296.86"
   style="fill:#AD6D42;"
   width="79.336"
   height="128.862"
   id="rect75" />
			<rect
   x="92.584"
   y="296.86"
   style="fill:#D89261;"
   width="74.252"
   height="128.862"
   id="rect76" />
			<rect
   x="123.307"
   y="296.86"
   style="fill:#FFF6E7;"
   width="8.31"
   height="128.91"
   id="rect77" />
			<rect
   x="92.584"
   y="296.86"
   style="opacity:0.67;fill:#AD6D42;"
   width="105.889"
   height="5.651"
   id="rect78" />
			<rect
   x="86.744"
   y="289.88"
   style="fill:#D89261;"
   width="80.093"
   height="6.98"
   id="rect79" />
			<rect
   x="166.837"
   y="289.88"
   style="fill:#D89261;"
   width="36.735"
   height="6.98"
   id="rect80" />
			<rect
   x="116.327"
   y="289.88"
   style="fill:#FFF6E7;"
   width="10.463"
   height="6.98"
   id="rect81" />
			<circle
   style="fill:#FFF6E7;"
   cx="127.469"
   cy="337.762"
   r="15.342"
   id="circle81" />
			<g
   id="g83">
				<rect
   x="124.531"
   y="327.869"
   style="fill:#DB5E1F;"
   width="6.268"
   height="19.555"
   id="rect82" />
				
					<rect
   x="124.531"
   y="327.869"
   transform="matrix(-1.836970e-16 1 -1 -1.836970e-16 465.3118 209.9814)"
   style="fill:#DB5E1F;"
   width="6.268"
   height="19.554"
   id="rect83" />
			</g>
		</g>
	</g>
	<g
   id="g169">
		<path
   style="fill:#872A21;"
   d="M230.846,157.976c-1.445,12.759-12.96,21.932-25.72,20.486    c-12.759-1.445-21.931-12.96-20.486-25.72c1.445-12.759,12.96-21.931,25.72-20.486    C223.12,133.702,232.292,145.217,230.846,157.976z"
   id="path85" />
		<path
   style="fill:#5D1408;"
   d="M185.125,149.993c13.261,23.437,37.772-3.779,37.772-3.779l-8.208-13.042    c-1.387-0.433-2.832-0.746-4.33-0.915C198.539,130.918,187.791,138.695,185.125,149.993z"
   id="path86" />
		<path
   style="fill:#FFF2E3;"
   d="M233.255,137.181c-0.797,7.035-7.146,12.092-14.181,11.295    c-7.035-0.797-12.092-7.146-11.295-14.181c0.797-7.035,7.146-12.092,14.181-11.295    C228.995,123.797,234.052,130.146,233.255,137.181z"
   id="path87" />
		<path
   style="fill:#233742;"
   d="M187.849,365.816c0,0-1.959,40.487-3.917,69.864c121.425,0,121.425,0,121.425,0    s-4.896-56.306-6.12-72.953c-54.592-13.22-54.592-13.22-54.592-13.22L187.849,365.816z"
   id="path88" />
		<path
   style="fill:none;stroke:#66A4BC;stroke-width:1.1118;stroke-miterlimit:10;"
   d="M259.333,367.624    c0,0-1.224,25.215-10.772,35.987c-5.141-38.924-5.141-38.924-5.141-38.924l3.81-7.099l7.206,1.714L259.333,367.624z"
   id="path89" />
		
			<line
   style="fill:none;stroke:#66A4BC;stroke-width:1.1118;stroke-miterlimit:10;"
   x1="248.561"
   y1="403.611"
   x2="247.231"
   y2="435.68"
   id="line89" />
		<path
   style="fill:none;stroke:#66A4BC;stroke-width:1.1118;stroke-miterlimit:10;"
   d="M213.064,374.234    c0,0-4.056,19.564-26.631,19.085"
   id="path90" />
		<path
   style="fill:none;stroke:#66A4BC;stroke-width:1.1118;stroke-miterlimit:10;"
   d="M282.1,374.968    c0,0,5.545,11.982,19.175,12.968"
   id="path91" />
		<path
   style="fill:#427089;"
   d="M218.311,168.157c0,0-25.566,5.799-36.827,15.237c3.427,139.676-4.407,192.554-4.407,192.554    s40.148,7.52,70.015,1.067c0.49-32.403,6.692-3.515,6.692-3.515s36.135,9.479,60.745,3.515    c-13.09-114.168-20.924-200.341-20.924-200.341l-46.318-11.946L218.311,168.157z"
   id="path92" />
		
			<line
   style="fill:none;stroke:#1D424F;stroke-width:1.1118;stroke-miterlimit:10;"
   x1="244.889"
   y1="223.187"
   x2="249.572"
   y2="361.725"
   id="line92" />
		<rect
   x="190.787"
   y="321.417"
   style="fill:#1D424F;"
   width="43.125"
   height="10.465"
   id="rect92" />
		<rect
   x="190.787"
   y="331.882"
   style="fill:#2F5566;"
   width="43.125"
   height="27.418"
   id="rect93" />
		<rect
   x="258.334"
   y="321.417"
   style="fill:#1D424F;"
   width="43.125"
   height="10.465"
   id="rect94" />
		<rect
   x="258.334"
   y="331.882"
   style="fill:#2F5566;"
   width="43.125"
   height="27.418"
   id="rect95" />
		<path
   style="fill:#D18665;"
   d="M340.609,253.543c0,0,7.314,23.21-1.753,42.06c-9.067,18.85-25.42,21.345-25.42,21.345    s4.133-20.355,3.903-27.192C317.107,282.92,340.609,253.543,340.609,253.543z"
   id="path95" />
		<path
   style="fill:#dd4b39;fill-opacity:1"
   d="M293.606,176.674c0,0,12.108,9.548,17.805,16.892c-13.154,26.684-16.581,27.62-16.581,27.62    S287.486,185.732,293.606,176.674z"
   id="path96" />
		<path
   style="fill:#dd4b39;fill-opacity:1"
   d="M216.602,177.594c0,0,21.188,23.316,28.287,45.593c5.631-30.846,8.661-48.472,8.661-48.472    L216.602,177.594z"
   id="path97" />
		<path
   style="fill:#C4A9A9;"
   d="M218.311,160.874c0,0,17.402-1.986,33.129,1.153C241.462,165.535,227.149,176.047,218.311,160.874"
   id="path98" />
		<path
   style="fill:#872A21;"
   d="M275.166,111.617c0,0,5.763-15.202,0.294-25.925c-3.344-7.529-6.298-6.154-6.298-6.154    s-15.836-12.519-38.017-8.814c-22.181,3.705-35.153,31.77-23.07,52.724c7.67,10.506,23.869,22.457,23.869,22.457l2.442-28.316    L275.166,111.617z"
   id="path99" />
		<path
   style="fill:#D18665;"
   d="M222.733,164.728c0.002,0.009,2.216,9.539,16.978,9.539c7.356,0,7.338-5.429,7.338-5.429l0,0.001    c0.259-8.426,1.984-15.88,1.984-15.88s-15.079-20.286-25.879-28.609C224.545,135.331,223.781,151.646,222.733,164.728z"
   id="path100" />
		<path
   style="fill:#380403;"
   d="M247.288,164.727c0.55-6.596,1.745-11.769,1.745-11.769s-2.66-2.822-6.546-6.697l-11.759-1.891    C230.729,144.37,235.324,157.623,247.288,164.727z"
   id="path101" />
		<path
   style="fill:#D18665;"
   d="M271.293,88.174c0,0,5.229,11.473,3.873,23.444c-1.014,11.699-2.193,20.736-2.616,27.217    c-0.423,6.481-7.66,16.853-13.956,17.538c-9.037,0.985-31.14-2.284-34.764-30.673c-0.521-11.873,1.773-15.654,1.773-15.654    S265.188,103.648,271.293,88.174z"
   id="path102" />
		<path
   style="fill:#5D1408;"
   d="M259.861,130.091c0,0,2.673,2.479,3.594,2.583c0.921,0.104-1.66,2.299-5.189,1.899    c2.69,2.325,5.901,0.047,7.167-1.52C265.589,131.673,259.861,130.091,259.861,130.091z"
   id="path103" />
		<path
   style="fill:#F9ECE4;"
   d="M253.511,124.398c0,0-8.539-2.833-14.67,0.515c-0.188-7.949,7.118-10.696,11.224-8.521    C254.172,118.566,253.511,124.398,253.511,124.398z"
   id="path104" />
		<path
   style="fill:#F9ECE4;"
   d="M270.565,117.936c-3.836-0.439-5.841,3.535-5.899,6.793c0,0,5.25-0.458,9.173,0.522    c0.174-1.665,0.355-3.41,0.539-5.239C273.213,118.698,271.784,118.075,270.565,117.936z"
   id="path105" />
		<g
   id="g106">
			<path
   style="fill:#5D1408;"
   d="M252.279,110.579c-2.33-0.443-4.43-0.82-6.491-0.716c-1.03,0.03-2.025,0.231-3.02,0.547     c-1.028,0.275-1.952,0.826-3.056,1.337c0.536-1.053,1.345-2.04,2.427-2.666c1.056-0.652,2.309-1.052,3.558-1.085     c1.248-0.056,2.485,0.165,3.611,0.603C250.425,109.051,251.477,109.672,252.279,110.579z"
   id="path106" />
		</g>
		<path
   style="fill:#5D1408;"
   d="M275.249,110.763c-0.243-0.073-0.488-0.143-0.738-0.194c-1.219-0.274-2.532-0.194-3.715,0.18    c-1.202,0.341-2.229,1.101-3.007,1.99c1.195-0.224,2.227-0.532,3.29-0.546c1.042-0.062,2.056-0.014,3.062,0.21    c0.313,0.063,0.623,0.156,0.934,0.24c0.03-0.342,0.061-0.678,0.091-1.025C275.199,111.332,275.224,111.048,275.249,110.763z"
   id="path107" />
		<path
   style="fill:#F4E9D3;"
   d="M260.591,139.43c-1.927-0.043-5.139-0.317-8.401-1.487c-0.533-0.191-0.981,0.45-0.62,0.886    c1.78,2.144,5.397,5.278,9.491,1.904C261.586,140.301,261.271,139.445,260.591,139.43z"
   id="path108" />
		<path
   style="opacity:0.32;fill:#AF0808;"
   d="M249.021,131.988c-0.152,1.956-2.665,3.356-5.613,3.127    c-2.948-0.229-5.215-2.001-5.063-3.957c0.152-1.956,2.665-3.356,5.614-3.127C246.907,128.261,249.173,130.032,249.021,131.988z"
   id="path109" />
		<path
   style="opacity:0.32;fill:#AF0808;"
   d="M269.117,133.144c-0.125,1.612,1.393,3.096,3.581,3.697    c0.165-2.048,0.386-4.315,0.642-6.807C271.031,130.261,269.244,131.505,269.117,133.144z"
   id="path110" />
		<path
   style="fill:#D18665;"
   d="M226.41,123.505c-0.653,5.764-5.854,9.907-11.618,9.254c-5.764-0.653-9.907-5.855-9.254-11.618    c0.653-5.764,5.855-9.907,11.618-9.254C222.92,112.539,227.063,117.741,226.41,123.505z"
   id="path111" />
		<path
   style="opacity:0.32;fill:#590A06;"
   d="M211.017,116.685c-1.426-0.161-2.816-0.028-4.113,0.35    c-0.714,1.223-1.196,2.608-1.366,4.106c-0.653,5.764,3.49,10.965,9.254,11.618c1.426,0.161,2.816,0.028,4.113-0.35    c0.714-1.223,1.196-2.608,1.366-4.106C220.924,122.539,216.781,117.338,211.017,116.685z"
   id="path112" />
		<path
   style="fill:#5D1408;"
   d="M264.356,76.498c-6.301-3.44-18.322-8.261-33.211-5.774c-16.905,2.824-28.445,19.796-27.638,36.986    C235.611,104.838,257.7,83.698,264.356,76.498z"
   id="path113" />
		<path
   style="fill:#5D1408;stroke:#5D1408;stroke-width:0.4677;stroke-miterlimit:10;"
   d="M271.293,88.174    c0,0-0.836-5.431-2.131-8.635"
   id="path114" />
		<path
   style="fill:#FFF2E3;"
   d="M218.3,128.96c-0.106,0.938-0.953,1.612-1.891,1.506c-0.938-0.106-1.612-0.953-1.506-1.891    c0.106-0.938,0.953-1.612,1.891-1.506C217.732,127.175,218.406,128.021,218.3,128.96z"
   id="path115" />
		<path
   style="fill:#440707;"
   d="M338.961,85.245c0,0,5.822-2.231,4.651-5.006c-1.171-2.775-3.92-1.277-3.92-1.277    s7.533-3.517,3.807-7.806s-5.964,0.826-5.964,0.826s0.415-3.557-1.531-6.567c-1.947-3.011-8.238,1.785-6.791,8.05    c-4.831-2.47-8.225-0.362-6.68,3.833c-6.349,3.919-5.982,9.436,2.243,8.521c-3.148,6.964,3.427,8.924,7.493,3.601    C333.187,92.799,343.12,95.1,338.961,85.245z"
   id="path116" />
		<path
   style="fill:#FFFEE6;"
   d="M335.268,83.305c3.303-1.394,7.11,0.154,8.503,3.457c1.394,3.302-0.154,7.11-3.457,8.503    c-3.303,1.394-7.11-0.154-8.503-3.457C330.418,88.506,331.966,84.699,335.268,83.305z"
   id="path117" />
		<path
   style="fill:#440707;"
   d="M318.146,98.107c0,0,3.577-7.424,19.031-11.717c15.454-4.293,36.202,2.003,37.919,12.163    c1.717,10.159,2.29,37.203-23.896,45.216C342.185,130.461,318.146,98.107,318.146,98.107z"
   id="path118" />
		<path
   style="fill:#752F2F;"
   d="M355.922,135.04c0,0-6.01,18.172-5.724,30.764c-15.454,7.727-20.176-2.231-20.176-2.231    s3.005-5.496,4.007-16.8c11.876-11.018,24.039-19.04,24.039-19.04L355.922,135.04z"
   id="path119" />
		<path
   style="fill:#2B0404;"
   d="M330.719,162.028c14.655-2.634,16.354-16.083,16.354-16.083l-13.359,3.684    C332.915,155.863,331.548,159.979,330.719,162.028z"
   id="path120" />
		<path
   style="fill:#752F2F;"
   d="M318.146,98.107c0,0-4.579,12.036-4.865,21.48c-0.286,9.444-4.15,28.218,0.143,32.56    c4.982,5.038,16.455,5.611,23.896,1.693c7.441-3.918,17.743-15.686,18.602-22.394c0-5.849,0-5.849,0-5.849    s-1.145,2.272-2.576,2.138c-1.431-0.134,1.717-6.732,0.859-12.019C353.346,110.429,351.057,90.364,318.146,98.107z"
   id="path121" />
		<circle
   style="fill:#752F2F;"
   cx="363.868"
   cy="130.748"
   r="9.73"
   id="circle121" />
		<path
   style="opacity:0.56;fill:#330202;"
   d="M358.575,135.597c0,1.331,0.269,2.598,0.752,3.754    c1.356,0.717,2.899,1.127,4.54,1.127c5.374,0,9.73-4.356,9.73-9.73c0-1.331-0.269-2.598-0.752-3.754    c-1.356-0.717-2.899-1.127-4.54-1.127C362.932,125.867,358.575,130.223,358.575,135.597z"
   id="path122" />
		<path
   style="fill:#FFFEE6;"
   d="M383.973,98.767c0,4.939-4.004,8.943-8.943,8.943c-4.939,0-8.943-4.004-8.943-8.943    c0-4.939,4.004-8.943,8.943-8.943C379.969,89.824,383.973,93.828,383.973,98.767z"
   id="path123" />
		<path
   style="fill:#440707;"
   d="M379.531,102.416c0,0-0.286,8.585,3.863,8.585c4.15,0,3.72-4.293,3.72-4.293    s0.429,11.447,7.87,9.015c7.441-2.433,2.146-8.013,2.146-8.013s4.293,2.432,9.158,1.574c4.865-0.859,2.146-11.414-6.582-12.933    c5.724-4.81,4.865-10.247-1.288-10.534c-1.574-10.159-8.774-12.648-12.02-1.717c-7.154-7.727-13.164-0.429-8.585,7.584    C373.035,91.04,364.793,102.416,379.531,102.416z"
   id="path124" />
		<path
   style="fill:#440707;"
   d="M320.817,127.36c0,0-2.099,2.815-3.625,3.674c-1.526,0.859,1.431,2.003,5.056,0.763    c-2.194,2.003-6.296,1.813-7.25,0.286C314.044,130.557,318.909,128.551,320.817,127.36z"
   id="path125" />
		<path
   style="fill:#FFFEE6;"
   d="M315.726,138.447c1.696-0.141,6.576-0.673,10.477-2.357c0.701-0.302,1.453,0.356,1.189,1.072    c-1.087,2.949-4.789,4.406-6.891,4.948c-2.216,0.572-4.687-1.207-5.265-2.966C315.127,138.815,315.38,138.475,315.726,138.447z"
   id="path126" />
		<path
   style="opacity:0.5;fill:#B74444;"
   d="M344.045,133.582c0,1.806-2.324,3.271-5.19,3.271c-2.866,0-5.189-1.464-5.189-3.271    c0-1.806,2.323-3.27,5.189-3.27C341.722,130.312,344.045,131.776,344.045,133.582z"
   id="path127" />
		<path
   style="fill:#440707;"
   d="M329.402,119.11l-1.622-1.908c0,0,13.737-2.576,15.454,8.299    C340.85,121.685,329.402,119.11,329.402,119.11z"
   id="path128" />
		<path
   style="fill:#440707;"
   d="M313.434,117.216c0,0,1.755,5.804,0.801,9.525c-1.519,0.001-1.519,0.001-1.519,0.001    L313.434,117.216z"
   id="path129" />
		<path
   style="fill:#440707;"
   d="M333.886,109.666c0,0,7.441,2.385,10.398,6.773c1.24-4.197-0.095-6.487-2.766-8.299    C338.846,106.327,333.981,107.281,333.886,109.666z"
   id="path130" />
		<path
   style="fill:none;stroke:#FFF6E7;stroke-width:1.1118;stroke-miterlimit:10;"
   d="M293.606,176.674c0,0-5.508,9.162,0,37.202"
   id="path131" />
		<path
   style="fill:#DB5E1F;"
   d="M313.435,348.039c0,0,3.672,0.184,8.079,4.223c4.407,4.039,4.223,19.483-2.387,27.368    c-6.61,7.885-13.403,11.373-14.872-5.519c-0.184-9.548-1.285-15.239-1.285-15.239L313.435,348.039z"
   id="path132" />
		<path
   style="fill:#FFF6E7;"
   d="M323.872,368.947c-6.432-4.903-15.169-2.984-19.903-1.351c0.133,1.902,0.24,4.082,0.286,6.515    c1.469,16.892,8.262,13.403,14.872,5.518C321.529,376.764,323.079,372.899,323.872,368.947z"
   id="path133" />
		<path
   style="fill:none;stroke:#FFF6E7;stroke-width:1.1118;stroke-miterlimit:10;"
   d="M305.173,363.279    c0,0,8.446-1.285,11.567-0.551"
   id="path134" />
		<path
   style="fill:#440707;"
   d="M314.53,110.448l4.398-1.736c0,0-1.405-1.778-3.519-1.898    C315.103,107.971,314.804,109.192,314.53,110.448z"
   id="path135" />
		<path
   style="fill:#FFFEE6;"
   d="M328.448,126.741c0,0,8.585-2.003,14.786-1.24c-1.431-6.773-9.635-7.822-13.832-6.391    C327.876,123.402,328.448,126.741,328.448,126.741z"
   id="path136" />
		<path
   style="fill:#440707;"
   d="M329.437,118.859c-1.576,4.434-0.985,7.882-0.985,7.882s4.651-1.085,9.648-1.384    c0.505-0.954,0.796-2.019,0.796-3.149c0-1.081-0.266-2.103-0.731-3.026C335.198,118.024,331.738,118.075,329.437,118.859z"
   id="path137" />
		<path
   style="opacity:0.21;fill:#EFEEE4;"
   d="M348.29,118.289c3.159-19.586,15.298-27.374,18.367-29.054    c-7.856-4.041-19.721-5.556-29.48-2.845c-15.454,4.293-19.031,11.717-19.031,11.717s-4.579,12.036-4.865,21.48    c-0.286,9.444-4.15,28.218,0.143,32.56c0.587,0.593,1.27,1.119,2.019,1.589C337.471,156.471,345.001,138.68,348.29,118.289z"
   id="path138" />
		<path
   style="fill:#233742;"
   d="M338.856,265.294c0,0-11.466,18.605-26.4,27.908c-14.933,9.303-25.807,17.902-25.807,17.902    l27.276,33.753c0,0,4.651,12.24-14.688,17.871c-37.211-25.95-51.469-36.721-45.686-53.858    c5.783-17.137,25.123-45.045,25.123-45.045l5.875-17.626L338.856,265.294z"
   id="path139" />
		<path
   style="fill:#FFCB57;"
   d="M350.248,162.643c0,0,13.4,5.707,5.675,47.814c-7.725,42.107-17.067,54.837-17.067,54.837    s-33.009,2.938-55.777-19.34c11.996-43.086,30.356-79.995,51.654-85.776C348.688,158.313,350.248,162.643,350.248,162.643z"
   id="path140" />
		<path
   style="fill:#FFF6E7;"
   d="M251.44,162.028c0,0-8.542,4.101-33.129-1.153c-6.226,7.598-4.023,18.247,2.954,20.083    c12.485,2.203,33.56-0.745,35.117-4.049C257.939,173.603,259.361,163.536,251.44,162.028z"
   id="path141" />
		<path
   style="fill:#752F2F;"
   d="M321.514,190.873l-6.995,20.319c0,0-20.913-3.183-28.992-7.099    c-2.938-1.958-6.61-9.792-9.18-11.261c-2.57-1.469-4.422,1.224-3.007,3.917c1.416,2.693,3.175,4.162,2.051,4.284    c-1.125,0.122-7.48-2.571-11.035-4.774c-3.554-2.203-4.044,2.203-1.596,4.774c-0.245,3.55,0.009,5.998,1.596,7.467    c-0.861,4.162,3.545,8.568,7.462,10.282c3.917,1.714,20.033,7.544,23.501,9.548c3.469,2.003,21.053,10.037,28.153,8.323    c7.1-1.714,15.668-25.95,17.871-36.231C343.547,190.138,321.514,190.873,321.514,190.873z"
   id="path142" />
		<path
   style="fill:none;stroke:#440707;stroke-width:1.1118;stroke-miterlimit:10;"
   d="M262.76,201.032c0,0,2.417,2.081,6.35,3.794    "
   id="path143" />
		<path
   style="fill:none;stroke:#440707;stroke-width:1.1118;stroke-miterlimit:10;"
   d="M264.356,208.499    c0,0,2.793,3.409,6.229,5.377"
   id="path144" />
		<path
   style="fill:#FFCB57;"
   d="M316.729,192.341c0,0,2.214-25.007,16.168-30.314c13.954-5.306,22.914,1.304,23.024,13.422    c0.11,12.118-7.968,33.049-7.968,33.049S339.852,195.646,316.729,192.341z"
   id="path145" />
		<path
   style="fill:#FFF6E7;"
   d="M351.647,197.62c-12.144-11.068-27.165-12.338-33.753-12.294c-0.904,4.076-1.165,7.016-1.165,7.016    c23.123,3.305,31.224,16.157,31.224,16.157S349.756,203.826,351.647,197.62z"
   id="path146" />
		<path
   style="fill:none;stroke:#BC8D2F;stroke-width:1.1118;stroke-miterlimit:10;"
   d="M316.729,192.341    c0,0,1.847-24.151,16.168-30.314"
   id="path147" />
		<path
   style="fill:none;stroke:#BC8D2F;stroke-width:1.1118;stroke-miterlimit:10;"
   d="M351.647,197.62    c0,0,8.431-20.123,2.491-30.327"
   id="path148" />
		<path
   style="opacity:0.56;fill:#330202;"
   d="M320.657,223.922c-5.959,0-10.84,4.58-11.334,10.411    c5.337,1.817,10.865,3.112,14.15,2.319c2.243-0.541,4.632-3.334,6.922-7.222C328.4,226.133,324.791,223.922,320.657,223.922z"
   id="path149" />
		<path
   style="fill:#dd4b39;stroke:#440707;stroke-width:1.1118;stroke-miterlimit:10;fill-opacity:1"
   d="M314.519,211.192    c0,0,5.77,1.037,7.729,1.375"
   id="path150" />
		<path
   style="fill:#5D1408;"
   d="M250.066,116.391c-1.275-0.675-2.858-0.874-4.429-0.592c-1.498,1.187-2.462,3.019-2.462,5.079    c0,0.904,0.186,1.764,0.521,2.546c4.996-0.623,9.815,0.974,9.815,0.974S254.172,118.566,250.066,116.391z"
   id="path151" />
		<path
   style="fill:#FFF6E7;"
   d="M285.256,238.448c-0.746,2.478-1.473,4.981-2.177,7.507c22.767,22.278,55.777,19.34,55.777,19.34    s1.557-2.124,3.924-7.497C334.578,257.917,307.517,256.784,285.256,238.448z"
   id="path152" />
		<path
   style="fill:#5D1408;"
   d="M270.565,117.936c-0.739-0.085-1.409-0.002-2.011,0.204c-0.793,1.075-1.268,2.4-1.268,3.839    c0,0.943,0.206,1.836,0.568,2.644c1.792,0.011,4.049,0.144,5.986,0.627c0.174-1.665,0.355-3.41,0.539-5.239    C273.213,118.698,271.784,118.075,270.565,117.936z"
   id="path153" />
		<path
   style="fill:none;stroke:#5D1408;stroke-width:0.9353;stroke-miterlimit:10;"
   d="M238.842,124.913    c-0.188-7.949,7.118-10.696,11.224-8.521c4.106,2.175,3.445,8.007,3.445,8.007"
   id="path154" />
		<path
   style="fill:none;stroke:#5D1408;stroke-width:0.9353;stroke-miterlimit:10;"
   d="M274.377,120.011    c-1.164-1.313-2.593-1.936-3.813-2.075c-3.836-0.439-5.841,3.535-5.899,6.793"
   id="path155" />
		<path
   style="opacity:0.29;fill:#F9ECE4;"
   d="M272.55,138.834c0.423-6.481,1.602-15.518,2.616-27.217    c1.356-11.971-3.873-23.444-3.873-23.444c-4.54,11.508-27.593,17.994-39.114,20.564c-0.028,11.135,2.472,36.78,24.876,47.749    c0.544-0.025,1.063-0.062,1.539-0.114C264.89,155.687,272.127,145.315,272.55,138.834z"
   id="path156" />
		<path
   style="fill:#D18665;"
   d="M181.484,183.393c0,0-13.464,10.172-19.34,38.815c-5.875,28.643-14.199,67.812-15.178,76.87    c-0.979,9.058,2.203,24.726,24.726,22.033c22.522-2.693,65.699-29.622,80.587-40.148c14.888-10.527,23.701-13.709,26.149-24.726    c2.448-11.016,5.631-13.709,7.834-16.402c1.469-2.938-1.714-5.386-1.714-5.386c3.917-2.448,0.734-6.12-0.734-6.12    c0.734-2.938-5.653-1.714-9.436,0c-3.783,1.714-7.455,10.037-11.128,14.933c-3.672,4.896-1.469,9.548-21.298,15.668    c-19.829,6.12-47.737,13.249-47.737,13.249l9.238-42.082C203.452,230.096,204.006,188.889,181.484,183.393z"
   id="path157" />
		<path
   style="fill:none;stroke:#872A21;stroke-width:1.1118;stroke-miterlimit:10;"
   d="M194.214,272.179    c0,0-21.298,3.642-27.419,7.559"
   id="path158" />
		<path
   style="opacity:0.32;fill:#590A06;"
   d="M146.818,302.262c0.102,9.088,4.818,21.246,24.873,18.848    c1.292-0.154,2.659-0.397,4.077-0.704c-0.86-10.974-10.019-19.616-21.213-19.616C151.822,300.791,149.219,301.325,146.818,302.262    z"
   id="path159" />
		<path
   style="fill:none;stroke:#872A21;stroke-width:1.1118;stroke-miterlimit:10;"
   d="M284.548,234.448    c0,0-5.875,2.693-8.201,10.037"
   id="path160" />
		<path
   style="fill:none;stroke:#872A21;stroke-width:1.1118;stroke-miterlimit:10;"
   d="M283.814,228.328    c0,0-9.303,2.938-11.996,7.222"
   id="path161" />
		<path
   style="fill:#dd4b39;fill-opacity:1"
   d="M197.112,258.978l6.34-28.882c0,0,0.554-41.208-21.968-46.703c0,0-13.464,10.172-19.34,38.815    c-2.003,9.763-4.289,20.748-6.473,31.348C166.492,252.218,186.066,251.189,197.112,258.978z"
   id="path162" />
		<path
   style="fill:#FFF6E7;"
   d="M157.651,243.967c-0.663,3.202-1.326,6.412-1.98,9.589c10.821-1.338,30.395-2.367,41.441,5.423    l1.79-8.156C183.952,243.873,165.794,243.644,157.651,243.967z"
   id="path163" />
		<path
   style="fill:#D18665;"
   d="M317.338,289.757c0,0-6.841-1.205-14.43-4.51c-7.589-3.306-17.626-7.957-15.423-3.306    c2.203,4.651,8.096,7.816,8.096,7.816s-9.565-0.472-13.237-1.451c-3.672-0.979-11.506-0.245-8.568,2.693    c2.938,2.938,7.834,3.427,11.506,4.406c-11.261-1.224-12.24-1.224-13.464,0.734c-1.224,1.958,2.004,3.182,3.573,4.162    c-0.39,3.672,2.792,5.386,4.506,5.875c-0.979,2.448,7.834,11.261,33.539,10.772C326.41,304.953,317.338,289.757,317.338,289.757z"
   id="path164" />
		<path
   style="fill:none;stroke:#872A21;stroke-width:1.1118;stroke-miterlimit:10;"
   d="M275.391,300.302    c0,0,6.709,1.714,10.626,2.693"
   id="path165" />
		<path
   style="fill:none;stroke:#872A21;stroke-width:1.1118;stroke-miterlimit:10;"
   d="M279.897,306.177    c0,0,3.672,1.469,7.834,2.448"
   id="path166" />
		<path
   style="fill:none;stroke:#FFF6E7;stroke-width:1.1118;stroke-miterlimit:10;"
   d="M181.484,183.393    c0,0,21.414,3.182,21.968,46.703"
   id="path167" />
		<path
   style="fill:#dd4b39;stroke:#FFF6E7;stroke-width:1.1118;stroke-miterlimit:10;fill-opacity:1"
   d="M216.602,176.674    c0,0,22.594,25.417,28.287,46.513c8.593-42.195,7.918-44.197,7.918-44.197"
   id="path168" />
		<path
   style="fill:#FFF6E7;"
   d="M307.774,385.275c2.933,2.553,7.179-0.666,11.353-5.646c6.61-7.885,6.793-23.328,2.387-27.368    c-0.468-0.429-0.926-0.806-1.374-1.153C322.997,358.478,326.574,374.895,307.774,385.275z"
   id="path169" />
	</g>
	<g
   id="g174">
		<path
   style="fill:#d13724;fill-opacity:1"
   d="M365.459,398.469c0,0,45.051-3.754,76.336-23.151c-8.76,21.9-8.76,21.9-8.76,21.9l21.274,13.952    c0,0-28.66,21.322-66.263,25.272C378.85,419.69,365.459,398.469,365.459,398.469z"
   id="path170" />
		<path
   style="fill:#d13724;fill-opacity:1"
   d="M142.778,398.469c0,0-45.051-3.754-76.336-23.151c8.76,21.9,8.76,21.9,8.76,21.9L53.928,411.17    c0,0,28.66,21.322,66.263,25.272C129.387,419.69,142.778,398.469,142.778,398.469z"
   id="path171" />
		<path
   style="fill:#b83020;fill-opacity:1"
   d="M410.632,403.229c0,0-23.899-6.011-45.173-4.76c0,28.157,0,28.157,0,28.157L410.632,403.229z"
   id="path172" />
		<path
   style="fill:#b83020;fill-opacity:1"
   d="M97.605,403.229c0,0,23.899-6.011,45.173-4.76c0,28.157,0,28.157,0,28.157L97.605,403.229z"
   id="path173" />
		<path
   style="fill:#d33915;fill-opacity:1"
   d="M98.672,403.229c0,0,174.697,34.032,311.96,0c10.21,26.091,5.672,48.602,5.672,48.602    s-141.75,36.847-323.304,0C86.194,422.337,98.672,403.229,98.672,403.229z"
   id="path174" />
	</g>
	<g
   id="g176">
		<path
   style="fill:#A32E2E;"
   d="M176.541,126.092c0,0-24.708-9.72-17.319-22.582c5.782-9.66,13.483,1.05,13.483,1.05    s2.878-12.618,9.51-13.422C188.848,90.334,192.885,114.279,176.541,126.092z"
   id="path175" />
		<path
   style="fill:#A32E2E;"
   d="M290.956,80.055c0,0,19.053-2.521,16.054-12.319c-2.416-7.397-9.669-1.471-9.669-1.471    s0.134-8.908-4.397-10.516C288.412,54.14,284.906,71.575,290.956,80.055z"
   id="path176" />
	</g>
	<g
   id="g178">
		<path
   style="fill:#FFFFFF;"
   d="M393.432,161.705h39.023l-13.084-3.764c0,0,4.361-6.564,2.525-7.791    c-1.836-1.227-11.248,5.989-11.248,5.989s3.214-5.838,0.918-9.052c-2.296-3.214-11.837,3.574-14.412,10.854    c0.639-5.574-3.42-5.398-6.477-0.829c-24.332,3.519-27.087,4.066-27.087,4.066L393.432,161.705z"
   id="path177" />
		<path
   style="fill:#FFFFFF;"
   d="M123.907,142.646H59.479l21.602-7.756c0,0-7.201-13.525-4.169-16.053    c3.032-2.528,18.57,12.339,18.57,12.339s-5.306-12.029-1.516-18.651c3.79-6.622,19.543,7.363,23.794,22.364    c-1.055-11.486,5.647-11.122,10.694-1.709c40.173,7.25,44.72,8.379,44.72,8.379L123.907,142.646z"
   id="path178" />
	</g>
</g>

</svg>
